# xmcd CD database file
#
# Track frame offsets:
#	150
#	12726
#	25665
#	40300
#	52194
#	66049
#	79240
#	92130
#	105306
#	117687
#	130438
#	144251
#	162331
#	177701
#	198435
#	212663
#	231112
#	246349
#	270806
#
# Disc length: 3965 seconds
#
# Revision: 1
# Processed by: cddbd v1.4PL0 Copyright (c) Steve Scherf et al.
# Submitted via: CDex 1.50
#
DISCID=140f7b13
DTITLE=Stevie Wonder - The Definitive Collection - CD2
DYEAR=1900
DGENRE=Jazz
TTITLE0=For Once In My Love
TTITLE1=Uptight
TTITLE2=We Can Work It Out
TTITLE3=Signed Sealed Delivered I'm Yours
TTITLE4=Yester-Me,Yester-You,Yesterday
TTITLE5=I'm Wondering
TTITLE6=My Cherie Amour
TTITLE7=You Are The Sunshine Of My Love
TTITLE8=I Don't Know Why (I Love You)
TTITLE9=A Place In The Sun
TTITLE10=Blowin' In The Wind
TTITLE11=Send One Your Love
TTITLE12=Pastime Paradise
TTITLE13=I Ain't Gonna Stand For It
TTITLE14=Fingertips (Part 1 and 2)
TTITLE15=Boogie On Reggae Woman
TTITLE16=You Haven't Done Nothin'
TTITLE17=He's Mister Know It All
TTITLE18=Happy Birthday
EXTD=
EXTT0=
EXTT1=
EXTT2=
EXTT3=
EXTT4=
EXTT5=
EXTT6=
EXTT7=
EXTT8=
EXTT9=
EXTT10=
EXTT11=
EXTT12=
EXTT13=
EXTT14=
EXTT15=
EXTT16=
EXTT17=
EXTT18=
PLAYORDER=
